<?xml version="1.0" standalone="no"?>
<!DOCTYPE svg PUBLIC "-//W3C//DTD SVG 20010904//EN"
 "http://www.w3.org/TR/2001/REC-SVG-20010904/DTD/svg10.dtd">
<svg version="1.0" xmlns="http://www.w3.org/2000/svg"
 width="90.000000pt" height="90.000000pt" viewBox="0 0 90.000000 90.000000"
 preserveAspectRatio="xMidYMid meet">
<metadata>
Created by potrace 1.14, written by Peter Selinger 2001-2017
</metadata>
<g transform="translate(0.000000,90.000000) scale(0.100000,-0.100000)"
fill="#000000" stroke="none">
<path d="M350 772 c-9 -46 -17 -62 -35 -70 -66 -30 -105 -145 -71 -210 l16
-31 -58 -4 -57 -3 64 -2 c43 -1 70 -7 82 -18 49 -45 143 -47 200 -5 25 18 44
21 156 23 l128 2 -122 3 c-68 2 -123 8 -123 13 0 5 6 15 14 22 20 21 13 110
-13 151 l-21 35 26 31 c34 41 28 53 -21 34 -22 -8 -55 -15 -73 -16 -32 -2 -35
1 -49 43 -23 68 -30 68 -43 2z"/>
<path d="M158 360 c3 -55 7 -70 19 -70 10 0 14 6 10 20 -4 15 0 20 13 20 69 0
98 66 40 90 -17 7 -33 10 -37 6 -3 -3 1 -6 10 -6 23 0 36 -30 26 -57 -19 -52
-64 -16 -53 43 3 18 0 24 -13 24 -16 0 -18 -8 -15 -70z"/>
<path d="M635 389 c-24 -15 -30 -27 -32 -56 -1 -21 -4 -52 -6 -70 -1 -17 1
-30 5 -27 4 3 8 12 8 20 0 9 11 14 35 14 22 0 38 6 41 15 4 10 15 12 35 8 17
-3 29 -1 29 5 0 5 -8 9 -17 8 -13 -1 -19 8 -21 32 -3 27 0 32 17 32 26 0 27
-9 4 -26 -17 -12 -17 -12 2 -9 11 2 23 4 28 4 14 2 7 29 -9 35 -38 15 -79 -11
-69 -43 4 -15 0 -17 -25 -13 -31 4 -50 36 -32 54 15 15 35 -1 29 -23 -3 -11
-2 -19 3 -19 13 0 21 33 11 43 -5 5 -7 16 -4 23 6 17 5 17 -32 -7z m40 -99
c-3 -5 -17 -10 -31 -10 -13 0 -24 5 -24 10 0 6 14 10 31 10 17 0 28 -4 24 -10z"/>
<path d="M514 385 c-4 -8 -4 -27 -1 -41 4 -23 3 -23 -13 -9 -9 8 -25 15 -34
15 -12 0 -16 5 -12 16 4 10 1 14 -6 12 -26 -9 -19 -36 11 -46 17 -6 31 -16 31
-21 0 -15 -33 -14 -48 1 -9 9 -12 9 -12 1 0 -7 8 -14 18 -17 21 -6 112 -5 95
1 -15 5 -18 70 -4 75 5 2 3 9 -5 16 -12 11 -15 10 -20 -3z"/>
<path d="M278 334 c-2 -35 0 -44 12 -44 12 0 15 8 12 35 -4 30 -1 35 17 35 12
0 21 4 21 9 0 5 -13 9 -29 9 -27 -1 -29 -4 -33 -44z"/>
<path d="M352 368 c-28 -28 -7 -79 32 -77 21 0 21 1 0 11 -23 11 -29 56 -9 70
7 5 6 8 0 8 -6 0 -16 -5 -23 -12z"/>
<path d="M398 354 c3 -17 8 -22 15 -15 11 11 3 41 -11 41 -5 0 -7 -12 -4 -26z"/>
<path d="M475 370 c3 -5 8 -10 11 -10 2 0 4 5 4 10 0 6 -5 10 -11 10 -5 0 -7
-4 -4 -10z"/>
<path d="M569 379 c-6 -47 -3 -89 6 -89 13 0 15 74 3 86 -5 4 -8 5 -9 3z"/>
<path d="M319 264 c-14 -17 -3 -45 22 -52 11 -4 12 -2 2 9 -20 21 -15 47 10
52 21 4 21 4 1 6 -12 0 -27 -6 -35 -15z"/>
<path d="M380 243 c0 -24 3 -33 9 -25 7 12 4 62 -5 62 -2 0 -4 -17 -4 -37z"/>
<path d="M407 273 c8 -3 11 -14 7 -28 -3 -13 0 -26 7 -30 9 -6 10 -2 6 16 l-6
24 18 -24 18 -23 -5 31 c-3 21 0 31 9 31 7 0 9 3 6 6 -4 4 -13 1 -21 -5 -10
-8 -16 -9 -21 -1 -3 5 -12 10 -18 9 -9 0 -9 -2 0 -6z"/>
<path d="M500 271 c0 -7 -5 -9 -12 -5 -7 4 -8 3 -4 -4 4 -6 1 -22 -5 -34 -12
-22 -11 -22 6 -8 14 11 19 12 22 3 5 -15 29 -17 37 -4 3 5 -2 8 -11 7 -12 -1
-18 6 -18 21 0 12 -3 25 -7 29 -5 4 -8 2 -8 -5z"/>
<path d="M563 246 c0 -19 5 -32 9 -30 10 6 7 64 -3 64 -4 0 -7 -15 -6 -34z"/>
<path d="M362 230 c0 -14 2 -19 5 -12 2 6 2 18 0 25 -3 6 -5 1 -5 -13z"/>
<path d="M178 183 c18 -2 45 -2 60 0 15 2 0 4 -33 4 -33 0 -45 -2 -27 -4z"/>
<path d="M283 183 c9 -2 23 -2 30 0 6 3 -1 5 -18 5 -16 0 -22 -2 -12 -5z"/>
<path d="M373 183 c26 -2 67 -2 90 0 23 2 2 3 -48 3 -49 0 -68 -1 -42 -3z"/>
<path d="M523 183 c9 -2 23 -2 30 0 6 3 -1 5 -18 5 -16 0 -22 -2 -12 -5z"/>
<path d="M593 183 c15 -2 37 -2 50 0 12 2 0 4 -28 4 -27 0 -38 -2 -22 -4z"/>
<path d="M683 183 c9 -2 23 -2 30 0 6 3 -1 5 -18 5 -16 0 -22 -2 -12 -5z"/>
<path d="M738 183 c6 -2 18 -2 25 0 6 3 1 5 -13 5 -14 0 -19 -2 -12 -5z"/>
<path d="M166 151 c-3 -4 1 -17 9 -27 8 -10 15 -14 15 -7 0 6 -5 15 -10 18 -6
4 -8 11 -5 16 4 5 4 9 1 9 -3 0 -7 -4 -10 -9z"/>
<path d="M380 139 c0 -6 -7 -9 -15 -5 -21 8 -19 -1 3 -13 14 -8 18 -6 19 10 1
10 0 19 -3 19 -2 0 -4 -5 -4 -11z"/>
<path d="M510 130 c-6 -11 -8 -20 -6 -20 3 0 10 9 16 20 6 11 8 20 6 20 -3 0
-10 -9 -16 -20z"/>
<path d="M703 127 c0 -12 1 -16 4 -9 4 9 9 10 18 2 9 -7 16 -6 26 7 8 9 9 14
2 10 -6 -4 -14 -1 -16 5 -4 10 -6 9 -6 -1 -1 -10 -4 -11 -14 -3 -10 8 -13 6
-14 -11z"/>
<path d="M213 126 c0 -15 22 -15 34 0 4 5 4 6 -1 2 -5 -4 -14 -3 -21 2 -8 7
-12 5 -12 -4z"/>
<path d="M330 131 c0 -6 4 -13 10 -16 6 -3 7 1 4 9 -7 18 -14 21 -14 7z"/>
<path d="M425 130 c-4 -6 -12 -7 -18 -4 -7 4 -8 3 -4 -2 4 -4 19 -9 32 -10 20
-1 23 2 14 13 -14 16 -16 16 -24 3z"/>
<path d="M566 127 c3 -10 9 -15 12 -12 3 3 0 11 -7 18 -10 9 -11 8 -5 -6z"/>
<path d="M622 133 c-6 -2 -9 -9 -6 -15 4 -6 10 -5 15 3 8 12 11 11 20 -1 9
-12 10 -12 7 -1 -5 17 -17 22 -36 14z"/>
<path d="M302 73 c87 -2 229 -2 315 0 87 1 16 3 -157 3 -173 0 -244 -2 -158
-3z"/>
</g>
</svg>
